<svg version="1.1" xmlns="http://www.w3.org/2000/svg" width="16px" height="14px" viewBox="0 0 16 14">
	<path fill="#FFFFFF" d="M16,2v2H5.723C5.376,4.596,4.738,5,4,5S2.624,4.596,2.277,4H0V2h2.277C2.624,1.405,3.262,1,4,1 s1.376,0.405,1.723,1H16z M12,5c-0.738,0-1.376,0.404-1.723,1H0v2h10.277C10.624,8.596,11.262,9,12,9s1.376-0.404,1.723-1H16V6 h-2.277C13.376,5.404,12.738,5,12,5z M7,9c-0.738,0-1.376,0.404-1.723,1H0v2h5.277C5.624,12.596,6.262,13,7,13s1.376-0.404,1.723-1 H16v-2H8.723C8.376,9.404,7.738,9,7,9z"/>
</svg>