<svg xmlns="http://www.w3.org/2000/svg" width="28" height="28" fill="none" viewBox="0 0 28 28">
	<path fill="#fff" d="M14.14 4C8.516 3.926 3.925 8.517 4 14.14c.076 5.393 4.468 9.785 9.861 9.86 5.625.077 10.215-4.514 10.138-10.138-.074-5.394-4.466-9.786-9.86-9.861zm6.078 15.733a.193.193 0 01-.232.04.193.193 0 01-.064-.055 5.973 5.973 0 00-1.555-1.422c-1.224-.786-2.775-1.219-4.367-1.219-1.591 0-3.142.433-4.366 1.218a5.973 5.973 0 00-1.555 1.422.192.192 0 01-.296.016 8.428 8.428 0 01-2.244-5.588C5.461 9.467 9.3 5.55 13.98 5.539c4.68-.011 8.483 3.79 8.483 8.462a8.429 8.429 0 01-2.244 5.732z"/>
	<path fill="#fff" d="M14 8.616c-.948 0-1.805.355-2.414 1.001-.609.646-.913 1.538-.845 2.496.14 1.888 1.602 3.426 3.26 3.426 1.657 0 3.116-1.538 3.258-3.425.072-.949-.23-1.834-.85-2.491-.611-.65-1.467-1.007-2.408-1.007z"/>
</svg>