<svg xmlns="http://www.w3.org/2000/svg" width="28" height="28" fill="none" viewBox="0 0 28 28">
	<path fill="#fff" d="M16.61 17.06V23h-4.86v-5.67c0-.9.27-1.62.72-2.07.45-.45 1.08-.72 1.8-.72s1.35.18 1.71.63c.45.45.63 1.08.63 1.89zm-8.19-1.89c-.45-.45-.99-.63-1.71-.63s-1.26.18-1.71.63V23h4.05v-5.94c0-.81-.18-1.44-.63-1.89zM19.58 5H5v8.19c.18-.18.36-.36.54-.45.63-.36 1.35-.54 2.16-.54.9 0 1.62.18 2.25.63.63.45 1.08.99 1.44 1.8.36-.72.81-1.35 1.53-1.71.63-.45 1.44-.63 2.25-.63 1.26 0 2.34.36 3.06 1.17.72.81 1.17 1.98 1.17 3.42V23H23V8.42C23 6.53 21.47 5 19.58 5z"/>
</svg>