<svg xmlns="http://www.w3.org/2000/svg" width="24" height="24" fill="none" viewBox="0 0 24 24">
  <path fill="#FFFFFF" d="M20 14.8c0 .7-.5 1.2-1.2 1.2h-8.2L7 19.6V16H5.2c-.7 0-1.2-.5-1.2-1.2V6.2C4 5.5 4.5 5 5.2 5h13.6c.7 0 1.2.5 1.2 1.2v8.6z"/>
  <path fill="#576675" d="M19 4H5c-1.1 0-2 .9-2 2v9c0 1.1.9 2 2 2h1v5l5-5h8c1.1 0 2-.9 2-2V6c0-1.1-.9-2-2-2zm1 10.8c0 .7-.5 1.2-1.2 1.2h-8.2L7 19.6V16H5.2c-.7 0-1.2-.5-1.2-1.2V6.2C4 5.5 4.5 5 5.2 5h13.6c.7 0 1.2.5 1.2 1.2v8.6z"/>
  <path fill="#576675" d="M12 11c-.6 0-1-.4-1-1V8c0-.5.4-1 1-1 .5 0 1 .4 1 1v2c0 .6-.4 1-1 1zm0 3c.6 0 1-.4 1-1s-.4-1-1-1-1 .4-1 1 .4 1 1 1z"/>
</svg>