<svg xmlns="http://www.w3.org/2000/svg" width="12" height="12" fill="none" viewBox="0 0 12 12">
	<path fill="#FF006A" d="M3.083 3.5a.41.41 0 01-.416-.401v-.03c0-.219.17-.401.387-.402h.03a6.25 6.25 0 016.25 6.25v.029a.395.395 0 01-.402.387h-.03a.41.41 0 01-.402-.416A5.417 5.417 0 003.083 3.5zM6.72 9.333c.211 0 .39-.16.392-.37v-.046a4.028 4.028 0 00-4.074-4.028.383.383 0 00-.37.392v.05c0 .222.195.391.416.391a3.194 3.194 0 013.195 3.195c0 .221.17.416.39.416h.05zM4.333 8.5a.833.833 0 11-1.666 0 .833.833 0 011.666 0zM2.806 1A1.806 1.806 0 001 2.806v6.388A1.806 1.806 0 002.806 11h6.388A1.806 1.806 0 0011 9.194V2.806A1.806 1.806 0 009.194 1H2.806zm-.973 1.806c0-.537.436-.973.973-.973h6.388c.537 0 .973.436.973.973v6.388a.972.972 0 01-.973.973H2.806a.972.972 0 01-.973-.973V2.806z"/>
</svg>