<svg version="1.1" xmlns="http://www.w3.org/2000/svg" width="200px" height="80px" viewBox="0 0 200 80">
	<rect opacity="0.3" fill="#FFFFFF" width="200" height="80"/>
	<g>
		<path fill="#F16221" d="M39.144,13.137L19.995,24.189v22.088l5.469,3.154l-0.036-22.079l13.68-7.908l13.68,7.908v22.07
			l5.469-3.146V24.172L39.144,13.137z M41.86,49.432l-2.734,1.582l-2.743-1.573V27.353l-5.468,3.154l0.009,22.079l8.203,4.735
			l8.203-4.735V30.507l-5.468-3.154V49.432z"/>
		<path d="M70.784,24.323l7.515,18.997h0.063l7.336-18.997h2.859V46.09h-1.975V27.129h-0.063c-0.099,0.34-0.215,0.688-0.331,1.027
			l-0.357,0.947l-0.348,1.01L79.183,46.09h-1.787l-6.371-15.977c-0.125-0.286-0.241-0.59-0.366-0.894
			c-0.125-0.304-0.232-0.652-0.331-0.956L69.961,27.2h-0.063v18.89h-1.885V24.323H70.784z M94.311,46.197
			c-0.592-0.162-1.145-0.441-1.626-0.822c-0.459-0.367-0.829-0.835-1.081-1.367c-0.28-0.601-0.417-1.258-0.402-1.921
			c-0.03-0.792,0.149-1.577,0.519-2.278c0.341-0.584,0.823-1.072,1.403-1.421c0.64-0.372,1.333-0.644,2.055-0.805
			c0.843-0.194,1.696-0.344,2.556-0.446c0.768-0.08,1.43-0.161,1.966-0.259c0.447-0.064,0.885-0.182,1.304-0.349
			c0.295-0.109,0.551-0.306,0.733-0.563c0.165-0.29,0.246-0.621,0.232-0.956v-0.304c0.069-0.906-0.291-1.794-0.974-2.395
			c-0.823-0.562-1.811-0.832-2.806-0.769c-2.794,0-4.265,1.165-4.414,3.494h-1.903c0.05-1.397,0.662-2.716,1.698-3.655
			c1.305-1.003,2.934-1.49,4.575-1.366c1.441-0.073,2.866,0.328,4.057,1.144c1.068,0.929,1.624,2.316,1.492,3.726v8.561
			c-0.022,0.363,0.082,0.723,0.295,1.019c0.191,0.225,0.473,0.353,0.769,0.349c0.106,0.013,0.215,0.013,0.321,0
			c0.13-0.021,0.259-0.05,0.384-0.09h0.09v1.376c-0.169,0.067-0.342,0.121-0.519,0.161c-0.249,0.059-0.504,0.086-0.76,0.08
			c-0.595,0.032-1.182-0.158-1.644-0.536c-0.441-0.449-0.684-1.059-0.67-1.688v-0.331h-0.09c-0.246,0.331-0.515,0.645-0.804,0.938
			c-0.338,0.35-0.723,0.65-1.144,0.894c-0.494,0.26-1.02,0.455-1.563,0.581c-0.657,0.169-1.333,0.25-2.011,0.241
			C95.661,46.458,94.974,46.376,94.311,46.197 M98.948,44.535c0.614-0.231,1.178-0.577,1.662-1.019
			c0.434-0.407,0.777-0.9,1.01-1.447c0.217-0.515,0.33-1.068,0.33-1.627v-2.877c-0.576,0.31-1.197,0.53-1.84,0.652
			c-0.724,0.152-1.465,0.286-2.234,0.385c-0.768,0.098-1.295,0.205-1.858,0.321c-0.518,0.089-1.017,0.268-1.474,0.527
			c-0.413,0.236-0.755,0.579-0.992,0.991c-0.262,0.501-0.389,1.062-0.366,1.627c-0.015,0.475,0.083,0.946,0.286,1.376
			c0.181,0.352,0.441,0.657,0.759,0.894c0.336,0.232,0.716,0.394,1.117,0.474c0.44,0.091,0.89,0.136,1.34,0.134
			C97.461,44.962,98.229,44.822,98.948,44.535 M108.768,50.424c-0.987-0.677-1.638-1.744-1.787-2.931h1.787
			c0.129,0.859,0.684,1.595,1.475,1.956c0.918,0.422,1.921,0.627,2.931,0.6c1.363,0.133,2.723-0.289,3.771-1.171
			c0.832-0.89,1.265-2.081,1.197-3.297v-2.502h-0.09c-0.518,0.822-1.214,1.519-2.037,2.037c-0.901,0.505-1.925,0.749-2.957,0.706
			c-0.964,0.013-1.918-0.186-2.797-0.581c-0.819-0.373-1.545-0.922-2.127-1.608c-0.611-0.73-1.072-1.575-1.358-2.484
			c-0.323-1.028-0.483-2.103-0.474-3.181c-0.016-1.152,0.168-2.298,0.546-3.387c0.325-0.914,0.823-1.757,1.465-2.484
			c0.597-0.654,1.328-1.173,2.145-1.519c0.824-0.343,1.708-0.519,2.601-0.519c1.058-0.042,2.105,0.219,3.02,0.751
			c0.802,0.502,1.477,1.181,1.975,1.983h0.09v-2.439H120v15.128c0.072,1.543-0.449,3.056-1.456,4.227
			c-1.413,1.344-3.327,2.031-5.272,1.895c-1.576,0.092-3.142-0.321-4.468-1.18 M117.051,42.471c0.888-1.352,1.326-2.949,1.251-4.565
			c0.01-0.864-0.093-1.727-0.304-2.564c-0.182-0.72-0.504-1.397-0.947-1.993c-0.423-0.553-0.971-0.997-1.6-1.295
			c-0.701-0.317-1.465-0.474-2.234-0.456c-1.428-0.065-2.793,0.589-3.637,1.742c-0.925,1.357-1.38,2.979-1.295,4.62
			c-0.005,0.837,0.098,1.672,0.304,2.483c0.176,0.707,0.479,1.377,0.894,1.976c0.398,0.552,0.922,1.002,1.527,1.313
			c0.673,0.329,1.414,0.491,2.163,0.474c1.496,0.106,2.945-0.545,3.859-1.734 M126.541,45.857c-0.889-0.394-1.674-0.987-2.297-1.733
			c-0.636-0.772-1.115-1.662-1.411-2.618c-0.338-1.057-0.504-2.161-0.492-3.271c-0.008-1.11,0.167-2.216,0.519-3.27
			c0.319-0.954,0.81-1.842,1.447-2.618c0.611-0.739,1.381-1.332,2.252-1.733c0.93-0.429,1.943-0.643,2.967-0.626
			c1.104-0.039,2.2,0.207,3.181,0.715c0.847,0.459,1.568,1.118,2.1,1.921c0.555,0.836,0.942,1.771,1.145,2.752
			c0.227,1.052,0.34,2.124,0.339,3.199h-12c0.018,0.839,0.146,1.671,0.384,2.476c0.214,0.718,0.553,1.393,1.001,1.992
			c0.439,0.573,1.009,1.032,1.662,1.34c0.731,0.344,1.533,0.512,2.341,0.492c1.106,0.069,2.199-0.274,3.065-0.965
			c0.75-0.688,1.283-1.579,1.537-2.564h1.787c-0.284,1.445-1.031,2.759-2.127,3.743c-1.214,0.976-2.743,1.471-4.298,1.395
			c-1.078,0.02-2.148-0.193-3.137-0.626 M133.939,34.903c-0.186-0.646-0.489-1.252-0.894-1.787
			c-0.392-0.498-0.894-0.898-1.466-1.171c-0.658-0.298-1.377-0.441-2.1-0.42c-0.728-0.015-1.45,0.129-2.117,0.42
			c-0.599,0.274-1.132,0.674-1.564,1.171c-0.444,0.529-0.789,1.135-1.019,1.787c-0.26,0.708-0.429,1.446-0.5,2.197h9.98
			c-0.015-0.737-0.126-1.471-0.33-2.18 M140.516,30.354v2.439h0.107c0.537-0.803,1.25-1.475,2.082-1.966
			c0.969-0.545,2.068-0.813,3.18-0.777c1.309-0.043,2.586,0.41,3.574,1.269c0.982,0.946,1.5,2.276,1.412,3.637v11.17h-1.885V35.1
			c0.082-0.977-0.268-1.939-0.957-2.636c-0.748-0.59-1.686-0.885-2.635-0.831c-0.645-0.006-1.283,0.105-1.887,0.33
			c-0.566,0.202-1.094,0.505-1.555,0.894c-0.916,0.817-1.436,1.989-1.43,3.217V46.09h-1.885V30.354H140.516z M155.732,45.554
			c-0.598-0.556-0.902-1.358-0.822-2.171V31.9h-2.377v-1.546h2.387v-4.843h1.885v4.843h2.922V31.9h-2.932v11.179
			c-0.045,0.427,0.094,0.854,0.385,1.17c0.332,0.239,0.736,0.353,1.145,0.322c0.229-0.001,0.455-0.028,0.678-0.081
			c0.193-0.037,0.383-0.094,0.564-0.17h0.098v1.618c-0.563,0.188-1.15,0.281-1.742,0.276
			C157.137,46.254,156.363,46.021,155.732,45.554 M165.311,45.857c-0.889-0.398-1.676-0.99-2.305-1.733
			c-0.645-0.771-1.133-1.66-1.439-2.618c-0.68-2.127-0.68-4.413,0-6.54c0.307-0.958,0.795-1.848,1.439-2.618
			c0.629-0.743,1.416-1.335,2.305-1.733c1.949-0.834,4.154-0.834,6.104,0c0.875,0.402,1.65,0.994,2.27,1.733
			c0.648,0.767,1.135,1.657,1.43,2.618c0.654,2.131,0.654,4.409,0,6.54c-0.295,0.961-0.781,1.852-1.43,2.618
			c-0.621,0.74-1.4,1.332-2.279,1.733c-1.949,0.834-4.154,0.834-6.102,0 M170.664,44.383c0.662-0.337,1.234-0.827,1.67-1.429
			c0.469-0.638,0.816-1.355,1.027-2.118c0.441-1.699,0.441-3.483,0-5.183c-0.203-0.765-0.547-1.485-1.01-2.127
			c-0.436-0.602-1.008-1.092-1.67-1.43c-1.473-0.69-3.176-0.69-4.646,0c-0.66,0.343-1.23,0.832-1.672,1.43
			c-0.469,0.64-0.814,1.36-1.018,2.127c-0.453,1.698-0.453,3.484,0,5.183c0.203,0.767,0.549,1.487,1.018,2.127
			c0.441,0.598,1.012,1.087,1.672,1.43c1.471,0.69,3.174,0.69,4.646,0 M178.025,32.964c-1.049,0.047-1.938-0.768-1.984-1.817
			c-0.004-0.067-0.002-0.135,0.002-0.202c-0.061-1.064,0.754-1.976,1.818-2.035c0.055-0.003,0.109-0.004,0.164-0.002
			c1.051-0.042,1.936,0.775,1.979,1.825c0.004,0.071,0.002,0.142-0.004,0.212c0.061,1.055-0.746,1.958-1.801,2.018
			C178.143,32.965,178.084,32.966,178.025,32.964 M178.025,29.14c-0.918-0.022-1.68,0.703-1.701,1.621
			c-0.002,0.056,0,0.11,0.004,0.166c0,0.938,0.76,1.697,1.697,1.697s1.699-0.76,1.699-1.697c0.068-0.915-0.617-1.714-1.533-1.783
			C178.137,29.14,178.082,29.138,178.025,29.14 M178.607,32.025l-0.67-0.965h-0.215v0.894h-0.385v-2.207h0.68
			c0.465,0,0.785,0.232,0.785,0.652c0.014,0.287-0.176,0.545-0.455,0.616l0.643,0.894L178.607,32.025z M178.018,30.113h-0.295v0.661
			H178c0.25,0,0.41-0.106,0.41-0.33S178.268,30.113,178.018,30.113 M70.033,61.209l-0.957,2.681c-0.008,0.047-0.05,0.081-0.098,0.08
			h-0.894c-0.071,0-0.098-0.036-0.08-0.107l2.877-8.042c0-0.054,0-0.107,0.054-0.179c0.011-0.118,0.011-0.238,0-0.357
			c-0.005-0.034,0.018-0.065,0.052-0.071c0.006-0.001,0.013-0.001,0.019,0h1.287c0.042,0,0.076,0.03,0.081,0.071l3.101,8.561
			c0,0.063,0,0.089-0.054,0.089H74.5c-0.044,0.002-0.086-0.022-0.107-0.063l-0.956-2.681L70.033,61.209z M73.08,60.19
			c-0.072-0.206-0.17-0.501-0.304-0.894c-0.134-0.394-0.259-0.751-0.402-1.145c-0.143-0.393-0.268-0.777-0.393-1.152
			s-0.214-0.67-0.277-0.894l0,0c-0.054,0.205-0.134,0.474-0.232,0.786c-0.098,0.313-0.214,0.644-0.349,1.01l-0.393,1.135
			c-0.134,0.394-0.268,0.769-0.384,1.126L73.08,60.19z M76.645,59.028c0-0.107,0-0.241,0-0.375c0-0.135,0-0.277,0-0.411
			s0-0.259,0-0.366s0-0.206,0-0.25c0-0.045,0-0.081,0.072-0.081h0.822c0.052,0,0.098,0.032,0.116,0.081
			c0.01,0.086,0.01,0.173,0,0.259c0,0.116,0,0.25,0,0.393c0.52-0.565,1.251-0.889,2.02-0.893c0.248,0.001,0.495,0.037,0.732,0.106
			c0.256,0.073,0.492,0.204,0.688,0.385c0.248,0.229,0.438,0.514,0.554,0.831c0.149,0.409,0.219,0.843,0.206,1.277v3.905
			c0,0.063,0,0.089-0.098,0.089h-0.894c-0.063,0-0.089,0-0.089-0.107v-3.807c0.018-0.429-0.098-0.854-0.331-1.215
			c-0.241-0.32-0.628-0.496-1.028-0.465c-0.311,0-0.617,0.073-0.894,0.215c-0.28,0.146-0.529,0.347-0.732,0.59v4.673
			c0,0.063,0,0.09-0.081,0.09h-0.992c-0.054,0-0.072,0-0.072-0.09V59.028z M87.958,61.209L87.01,63.89
			c-0.013,0.048-0.057,0.082-0.107,0.08h-0.894c-0.071,0-0.089,0-0.071-0.107l2.868-8.042c0-0.054,0-0.107,0.054-0.179
			c0.012-0.118,0.012-0.238,0-0.357c0,0,0-0.071,0.063-0.071h1.296c0,0,0.063,0,0.071,0.071l3.101,8.561
			c0,0.063,0,0.089-0.054,0.089h-0.965c-0.045,0.002-0.087-0.022-0.107-0.063l-0.956-2.681L87.958,61.209z M91.004,60.19
			c-0.071-0.206-0.17-0.501-0.304-0.894l-0.394-1.145c-0.143-0.401-0.277-0.777-0.402-1.152s-0.214-0.67-0.277-0.894l0,0
			c-0.054,0.205-0.134,0.474-0.232,0.786c-0.098,0.313-0.214,0.644-0.34,1.01c-0.125,0.366-0.268,0.742-0.402,1.135
			c-0.134,0.394-0.259,0.769-0.384,1.126L91.004,60.19z M97.304,64.068c-0.434,0.002-0.866-0.067-1.278-0.206
			c-0.796-0.26-1.431-0.868-1.725-1.653c-0.177-0.455-0.262-0.94-0.25-1.43c-0.006-0.459,0.079-0.914,0.25-1.34
			c0.179-0.4,0.434-0.762,0.751-1.063c0.328-0.308,0.714-0.547,1.135-0.706c0.468-0.176,0.965-0.263,1.465-0.259
			c0.155-0.011,0.31-0.011,0.464,0l0.367,0.054v-2.887c-0.005-0.039,0.022-0.074,0.061-0.08c0.006-0.001,0.013-0.001,0.019,0h0.957
			c0.053,0,0.08,0,0.08,0.063v8.614c-0.008,0.109-0.008,0.22,0,0.33c0.002,0.041-0.024,0.077-0.063,0.09
			c-0.358,0.171-0.736,0.297-1.126,0.375C98.047,64.043,97.676,64.075,97.304,64.068z M98.465,58.475
			c-0.123-0.051-0.252-0.084-0.384-0.099c-0.157-0.015-0.316-0.015-0.474,0c-0.345-0.004-0.687,0.057-1.009,0.179
			c-0.289,0.11-0.551,0.28-0.769,0.501c-0.213,0.217-0.38,0.476-0.492,0.759c-0.112,0.304-0.169,0.624-0.169,0.947
			c-0.011,0.375,0.053,0.749,0.188,1.1c0.209,0.546,0.657,0.967,1.215,1.144c0.271,0.089,0.554,0.134,0.84,0.134
			c0.181,0.013,0.363,0.013,0.545,0c0.176-0.015,0.349-0.061,0.509-0.134V58.475z M103.988,57.411
			c0.433-0.009,0.862,0.076,1.26,0.25c0.342,0.169,0.646,0.406,0.894,0.697c0.266,0.31,0.469,0.667,0.599,1.055
			c0.146,0.425,0.218,0.872,0.214,1.322c0.008,0.465-0.068,0.928-0.223,1.367c-0.134,0.391-0.347,0.749-0.626,1.054
			c-0.26,0.296-0.584,0.527-0.947,0.68c-0.369,0.159-0.769,0.238-1.17,0.232c-0.47,0.012-0.936-0.09-1.358-0.295
			c-0.369-0.18-0.692-0.439-0.947-0.76c-0.246-0.324-0.431-0.69-0.545-1.081c-0.118-0.392-0.178-0.798-0.179-1.207
			c-0.003-0.443,0.069-0.885,0.214-1.304c0.129-0.393,0.335-0.754,0.608-1.063c0.262-0.304,0.588-0.545,0.956-0.706
			C103.131,57.481,103.558,57.399,103.988,57.411z M103.988,58.358c-0.266-0.001-0.528,0.057-0.769,0.17
			c-0.23,0.114-0.432,0.279-0.59,0.482c-0.171,0.225-0.298,0.479-0.375,0.75c-0.101,0.309-0.148,0.632-0.144,0.956
			c-0.017,0.318,0.013,0.638,0.09,0.947c0.079,0.276,0.206,0.536,0.375,0.769c0.158,0.219,0.367,0.396,0.607,0.519
			c0.485,0.207,1.034,0.207,1.52,0c0.229-0.099,0.435-0.248,0.599-0.438c0.184-0.216,0.325-0.465,0.42-0.732
			c0.114-0.343,0.169-0.702,0.16-1.063c-0.001-0.301-0.04-0.602-0.115-0.894c-0.067-0.271-0.183-0.528-0.34-0.759
			C105.09,58.608,104.553,58.345,103.988,58.358z M109.348,54.498h0.072c0,0,0,0,0,0.071v3.092c0.456-0.175,0.941-0.263,1.43-0.259
			c0.425-0.004,0.847,0.074,1.242,0.232c0.356,0.146,0.679,0.365,0.946,0.643c0.263,0.283,0.469,0.614,0.608,0.975
			c0.305,0.913,0.27,1.906-0.099,2.797c-0.193,0.428-0.474,0.812-0.822,1.126c-0.34,0.304-0.737,0.535-1.171,0.679
			c-0.424,0.139-0.867,0.211-1.313,0.215c-0.298,0.021-0.597,0.021-0.895,0c-0.304-0.036-0.604-0.105-0.893-0.206
			c-0.054,0-0.081,0-0.081-0.116v-9.168c0-0.053,0-0.08,0.099-0.08H109.348z M112.753,60.592c0.029-0.59-0.169-1.169-0.555-1.617
			c-0.389-0.408-0.938-0.627-1.501-0.599c-0.239-0.003-0.479,0.015-0.715,0.054c-0.187,0.04-0.368,0.098-0.545,0.17v4.468
			c0.13,0.045,0.265,0.072,0.402,0.08c0.157,0.01,0.315,0.01,0.474,0c0.304,0.001,0.606-0.051,0.894-0.151
			c0.288-0.104,0.552-0.266,0.777-0.474c0.238-0.226,0.424-0.5,0.545-0.805c0.162-0.354,0.25-0.736,0.259-1.126H112.753z
			 M116.042,60.878c-0.005,0.304,0.041,0.605,0.134,0.894c0.085,0.265,0.226,0.509,0.411,0.715c0.193,0.204,0.428,0.365,0.688,0.474
			c0.311,0.12,0.642,0.178,0.975,0.17c0.3,0.005,0.6-0.025,0.894-0.09c0.275-0.053,0.543-0.143,0.795-0.268c0,0,0.071,0,0.071,0.054
			v0.75c0.004,0.055-0.023,0.107-0.071,0.135c-0.25,0.123-0.514,0.216-0.786,0.276c-0.352,0.078-0.712,0.114-1.072,0.107
			c-0.498,0.014-0.992-0.084-1.447-0.286c-0.374-0.171-0.701-0.428-0.956-0.75c-0.244-0.313-0.423-0.672-0.527-1.055
			c-0.11-0.39-0.168-0.792-0.17-1.197c-0.001-0.443,0.068-0.884,0.205-1.305c0.12-0.394,0.314-0.761,0.572-1.081
			c0.243-0.304,0.548-0.554,0.894-0.732c0.385-0.184,0.807-0.275,1.233-0.269c0.414-0.011,0.824,0.078,1.197,0.259
			c0.306,0.154,0.574,0.374,0.786,0.644c0.208,0.265,0.36,0.568,0.446,0.894c0.087,0.29,0.132,0.591,0.135,0.894
			c0,0.161,0,0.304,0,0.42c0.01,0.086,0.01,0.173,0,0.26c0,0.054,0,0.08-0.09,0.08c-0.178,0.026-0.356,0.041-0.536,0.045h-3.699
			L116.042,60.878z M118.507,60.064h0.67h0.197c0.005-0.023,0.005-0.048,0-0.071v-0.08c-0.004-0.148-0.024-0.295-0.063-0.438
			c-0.047-0.187-0.129-0.362-0.241-0.519c-0.131-0.175-0.295-0.32-0.482-0.429c-0.235-0.13-0.501-0.192-0.769-0.179
			c-0.246-0.007-0.49,0.042-0.715,0.143c-0.202,0.092-0.382,0.226-0.527,0.394c-0.147,0.162-0.266,0.35-0.349,0.554
			c-0.08,0.21-0.134,0.429-0.161,0.652L118.507,60.064z M130.705,63.701c0,0.081,0,0.126-0.063,0.135
			c-0.235,0.112-0.484,0.191-0.742,0.232c-0.332,0.037-0.666,0.055-1.001,0.053c-0.551-0.002-1.1-0.086-1.626-0.25
			c-0.526-0.162-1.014-0.433-1.43-0.795c-0.437-0.384-0.781-0.86-1.01-1.394c-0.277-0.655-0.411-1.362-0.393-2.073
			c-0.006-0.611,0.106-1.218,0.33-1.787c0.419-1.085,1.29-1.934,2.386-2.323c0.59-0.233,1.216-0.357,1.85-0.366
			c0.358-0.007,0.717,0.014,1.072,0.063c0.212,0.029,0.419,0.087,0.617,0.17c0.043,0.016,0.069,0.061,0.063,0.106v0.894
			c0,0.063,0,0.081-0.09,0.063c-0.531-0.231-1.11-0.335-1.688-0.305c-0.485-0.007-0.968,0.078-1.421,0.251
			c-0.408,0.154-0.781,0.388-1.1,0.688c-0.311,0.309-0.552,0.68-0.705,1.09c-0.177,0.456-0.265,0.941-0.26,1.43
			c-0.02,0.592,0.1,1.18,0.349,1.716c0.388,0.818,1.117,1.424,1.993,1.653c0.363,0.104,0.738,0.161,1.116,0.17
			c0.299,0.002,0.598-0.016,0.894-0.054c0.261-0.027,0.517-0.091,0.76-0.188c0.054,0,0.071,0,0.071,0.054L130.705,63.701z
			 M134.583,57.411c0.433-0.009,0.862,0.076,1.26,0.25c0.342,0.169,0.646,0.406,0.894,0.697c0.266,0.31,0.469,0.667,0.598,1.055
			c0.146,0.425,0.219,0.872,0.215,1.322c0.008,0.465-0.068,0.928-0.223,1.367c-0.135,0.391-0.348,0.749-0.627,1.054
			c-0.259,0.296-0.583,0.527-0.947,0.68c-0.382,0.172-0.796,0.257-1.215,0.25c-0.47,0.013-0.936-0.088-1.358-0.295
			c-0.368-0.18-0.692-0.438-0.947-0.76c-0.246-0.324-0.431-0.69-0.545-1.081c-0.117-0.392-0.178-0.798-0.179-1.206
			c-0.003-0.444,0.069-0.885,0.215-1.305c0.129-0.39,0.332-0.751,0.599-1.063c0.266-0.3,0.591-0.54,0.956-0.706
			C133.688,57.488,134.133,57.399,134.583,57.411z M134.529,58.358c-0.263,0-0.522,0.058-0.76,0.17
			c-0.23,0.114-0.432,0.279-0.59,0.482c-0.17,0.227-0.3,0.48-0.384,0.75c-0.179,0.622-0.179,1.282,0,1.903
			c0.079,0.276,0.206,0.536,0.375,0.769c0.158,0.219,0.367,0.396,0.607,0.519c0.485,0.207,1.034,0.207,1.52,0
			c0.23-0.099,0.435-0.248,0.599-0.438c0.184-0.216,0.325-0.465,0.42-0.732c0.111-0.343,0.162-0.702,0.151-1.063
			c0.002-0.301-0.034-0.601-0.107-0.894c-0.066-0.271-0.182-0.528-0.339-0.759c-0.336-0.489-0.899-0.772-1.492-0.751V58.358z
			 M139.041,63.952c-0.053,0-0.08,0-0.08-0.09V58.93c0-0.294,0-0.554,0-0.777c0-0.223,0-0.411,0-0.526c0-0.116,0-0.081,0.07-0.081
			h0.832c0.045-0.001,0.086,0.022,0.107,0.063c0.023,0.097,0.037,0.195,0.045,0.295c0,0.116,0,0.232,0,0.34
			c0.523-0.525,1.232-0.824,1.975-0.831c0.732-0.059,1.434,0.319,1.787,0.965c0.279-0.274,0.6-0.506,0.947-0.688
			c0.387-0.195,0.816-0.29,1.25-0.277c0.254,0,0.508,0.036,0.75,0.107c0.254,0.081,0.486,0.219,0.68,0.401
			c0.225,0.217,0.398,0.479,0.51,0.769c0.145,0.398,0.211,0.819,0.195,1.242v3.94c0,0.054,0,0.081-0.088,0.081h-0.895
			c-0.063,0-0.088,0-0.088-0.09v-3.851c0.01-0.408-0.102-0.81-0.322-1.153c-0.238-0.323-0.627-0.503-1.027-0.474
			c-0.311-0.001-0.615,0.069-0.895,0.206c-0.273,0.137-0.518,0.329-0.715,0.563c0,0.081,0,0.196,0,0.357s0,0.331,0,0.482v3.869
			c0,0.063,0,0.09-0.09,0.09h-0.893c-0.045,0.005-0.084-0.026-0.09-0.07c0-0.007,0-0.013,0-0.02v-3.896
			c0.025-0.415-0.094-0.826-0.34-1.162c-0.238-0.286-0.6-0.441-0.973-0.42c-0.291-0.003-0.576,0.059-0.84,0.179
			c-0.285,0.14-0.543,0.331-0.76,0.563v4.744c0.004,0.039-0.023,0.075-0.063,0.081c-0.006,0.001-0.012,0.001-0.018,0H139.041z
			 M152.391,57.411c0.443-0.007,0.885,0.075,1.295,0.241c0.369,0.145,0.701,0.367,0.975,0.652c0.266,0.283,0.473,0.618,0.607,0.982
			c0.137,0.396,0.207,0.813,0.205,1.233c0.014,0.542-0.096,1.08-0.32,1.572c-0.213,0.435-0.518,0.816-0.895,1.117
			c-0.359,0.295-0.771,0.516-1.215,0.652c-0.443,0.149-0.908,0.225-1.377,0.224l-0.32-0.018h-0.295v2.636
			c0.004,0.044-0.027,0.084-0.07,0.089c-0.002,0-0.002,0-0.002,0h-0.268h-0.305h-0.258h-0.125c-0.045,0-0.072,0-0.072-0.08v-8.408
			c0-0.125,0-0.224,0-0.313c-0.01-0.017-0.01-0.037,0-0.054c0.232-0.09,0.555-0.197,0.982-0.331
			C151.406,57.469,151.898,57.402,152.391,57.411z M152.238,58.376c-0.215-0.002-0.432,0.017-0.643,0.054
			c-0.199,0.031-0.393,0.083-0.582,0.152v4.468c0.119,0.035,0.242,0.056,0.367,0.063h0.385c0.303-0.004,0.604-0.053,0.893-0.144
			c0.301-0.103,0.58-0.261,0.822-0.465c0.252-0.22,0.453-0.491,0.59-0.795c0.154-0.358,0.23-0.745,0.223-1.135
			c0.029-0.589-0.166-1.166-0.545-1.617C153.35,58.559,152.801,58.348,152.238,58.376z M161.379,62.835v0.34
			c-0.008,0.101-0.008,0.202,0,0.304c0.01,0.017,0.01,0.037,0,0.054c-0.408,0.21-0.844,0.363-1.295,0.455
			c-0.385,0.079-0.777,0.117-1.17,0.116c-0.33,0.003-0.658-0.043-0.975-0.134c-0.281-0.08-0.547-0.214-0.777-0.394
			c-0.219-0.17-0.395-0.391-0.51-0.643c-0.129-0.28-0.191-0.586-0.188-0.894c-0.01-0.314,0.07-0.625,0.232-0.894
			c0.156-0.255,0.371-0.47,0.625-0.626c0.273-0.176,0.576-0.303,0.895-0.375c0.379-0.077,0.766-0.116,1.152-0.116h0.59h0.322v-0.313
			c-0.004-0.13-0.021-0.259-0.055-0.385c-0.039-0.157-0.111-0.304-0.215-0.429c-0.119-0.152-0.271-0.275-0.445-0.357
			c-0.246-0.108-0.512-0.16-0.777-0.152c-0.303,0-0.602,0.036-0.895,0.107c-0.266,0.065-0.523,0.162-0.768,0.286
			c-0.063,0-0.1,0-0.1-0.063V57.92c0.002-0.046,0.029-0.087,0.072-0.106c0.285-0.133,0.584-0.229,0.893-0.286
			c0.332-0.072,0.672-0.108,1.01-0.107c0.373-0.011,0.744,0.056,1.09,0.196c0.285,0.12,0.539,0.303,0.742,0.536
			c0.193,0.23,0.338,0.498,0.42,0.787c0.092,0.31,0.137,0.632,0.135,0.956L161.379,62.835z M160.281,60.896
			c-0.119-0.021-0.238-0.037-0.357-0.044h-0.52c-0.496-0.033-0.99,0.071-1.43,0.304c-0.305,0.191-0.482,0.533-0.465,0.894
			c0,0.149,0.027,0.298,0.08,0.438c0.057,0.146,0.148,0.275,0.27,0.375c0.143,0.12,0.311,0.208,0.49,0.26
			c0.238,0.074,0.484,0.107,0.732,0.098c0.41,0.007,0.818-0.069,1.199-0.223V60.896z M163.229,59.028c0-0.107,0-0.241,0-0.375
			c0-0.135,0-0.277,0-0.411s0-0.259,0-0.366c0.008-0.083,0.008-0.167,0-0.25c-0.004-0.04,0.023-0.075,0.063-0.081
			c0.006-0.001,0.012-0.001,0.018,0h0.814c0.053-0.001,0.104,0.031,0.125,0.081c0.008,0.086,0.008,0.173,0,0.259
			c0,0.116,0,0.25,0.045,0.393c0.518-0.563,1.244-0.887,2.01-0.893c0.248,0.001,0.494,0.037,0.732,0.106
			c0.258,0.074,0.496,0.206,0.697,0.385c0.229,0.217,0.406,0.482,0.518,0.777c0.148,0.409,0.219,0.843,0.207,1.277v3.905
			c0,0.063,0,0.089-0.09,0.089h-0.895c-0.063,0-0.088,0-0.088-0.107v-3.753c0.021-0.43-0.094-0.855-0.332-1.215
			c-0.24-0.32-0.627-0.496-1.027-0.465c-0.311,0.001-0.615,0.074-0.893,0.215c-0.281,0.146-0.529,0.347-0.732,0.59v4.673
			c0,0.063,0,0.09-0.072,0.09h-0.938c-0.055,0-0.082,0-0.082-0.09L163.229,59.028z M170.432,57.545
			c0.039-0.002,0.076,0.024,0.088,0.063c0.277,0.733,0.51,1.376,0.725,1.931c0.215,0.554,0.385,1.027,0.527,1.43
			c0.143,0.401,0.277,0.741,0.365,1.01l0.207,0.625c0.205-0.599,0.455-1.305,0.74-2.1c0.287-0.796,0.635-1.787,1.037-2.896
			c0.021-0.04,0.063-0.063,0.107-0.063h0.893c0.063,0,0.082,0,0.055,0.09c-0.25,0.715-0.518,1.456-0.805,2.225
			c-0.285,0.769-0.58,1.537-0.893,2.323s-0.627,1.546-0.947,2.314c-0.322,0.769-0.635,1.492-0.957,2.198
			c-0.027,0.054-0.082,0.089-0.143,0.089l-0.992,0.08c-0.053,0-0.063,0,0-0.106l0.635-1.358c0.227-0.507,0.449-1.024,0.67-1.555
			c0.027-0.054,0.027-0.116,0-0.17l-0.24-0.581l-0.357-0.894l-0.447-1.09c-0.152-0.385-0.313-0.786-0.482-1.188
			s-0.322-0.804-0.475-1.197l-0.438-1.108c0-0.054,0-0.08,0.063-0.08L170.432,57.545z"/>
	</g>
</svg>
